<svg width="410" height="79" viewBox="0 0 410 79" fill="none" >
<path d="M20.9128 35.6078L20.7809 34.7504C20.7809 34.6185 20.8249 34.5525 20.9128 34.5525L21.7043 35.0802C21.7482 35.1022 21.7922 35.1461 21.8362 35.2121C21.9021 35.2561 21.9461 35.289 21.9681 35.311C22.0121 35.333 22.056 35.366 22.1 35.41C22.122 35.41 22.144 35.4319 22.166 35.4759C22.2099 35.5419 22.2319 35.6518 22.2319 35.8057C22.2319 36.4652 21.9351 37.2787 21.3415 38.246C20.7699 39.1914 19.9675 40.1587 18.9342 41.148C17.9229 42.1154 16.5708 42.9398 14.8779 43.6213C13.1851 44.3029 11.3054 44.6436 9.2388 44.6436C7.17221 44.6436 5.19356 43.9841 3.30286 42.665C1.41215 41.3459 0.466797 39.6531 0.466797 37.5865C0.466797 36.0915 0.785579 34.7064 1.42314 33.4313C2.08269 32.1562 2.89613 31.1339 3.86347 30.3644C4.83081 29.573 5.88609 28.8694 7.02931 28.2539C8.17253 27.6163 9.2278 27.1436 10.1951 26.8358C12.4596 26.0883 13.5918 25.6706 13.5918 25.5827C13.5918 25.4068 13.4599 25.2309 13.1961 25.055C11.877 24.1537 11.2174 22.9225 11.2174 21.3616C11.2174 19.7787 12.0968 18.2617 13.8556 16.8107C15.6364 15.3597 18.0328 14.6342 21.0447 14.6342C22.122 14.6342 23.2652 14.7661 24.4744 15.0299C26.8488 15.5795 28.0359 16.327 28.0359 17.2724C28.0359 17.5362 27.915 17.866 27.6732 18.2617C27.4314 18.6354 27.2335 18.9872 27.0796 19.317C26.9257 19.6248 26.8048 19.7787 26.7168 19.7787C26.6289 19.7787 26.541 19.6467 26.453 19.3829C26.1892 18.4815 25.5077 17.6021 24.4084 16.7447C23.3312 15.8653 22.0231 15.4256 20.4841 15.4256C18.9671 15.4256 17.725 15.5795 16.7577 15.8873C15.7683 16.1511 15.0538 16.5249 14.6141 17.0085C13.8446 17.844 13.4599 18.6904 13.4599 19.5478C13.4599 20.3832 13.6908 21.2407 14.1524 22.1201C14.6361 22.9994 15.2407 23.648 15.9662 24.0657C16.8456 24.4834 17.2853 24.7473 17.2853 24.8572C17.2853 25.2309 17.1974 25.5277 17.0215 25.7476C16.8456 25.9674 16.4718 26.1103 15.9002 26.1763C13.9656 26.3961 12.2617 26.7919 10.7887 27.3635C9.31574 27.9351 8.13955 28.5836 7.26015 29.3091C6.40274 30.0126 5.69922 30.8261 5.14959 31.7495C4.22623 33.3104 3.76454 35.1022 3.76454 37.1248C3.76454 38.224 3.99538 39.1914 4.45707 40.0268C4.91875 40.8622 5.52334 41.4998 6.27083 41.9395C8.33741 42.7529 9.87636 43.1926 10.8877 43.2586C13.9436 43.2586 16.3729 42.4781 18.1757 40.9172C20.0004 39.3563 20.9128 37.5865 20.9128 35.6078Z" fill="currentColor"/>
<path d="M40.2371 33.1015L38.4563 36.795C40.6988 34.3327 43.4029 31.0679 46.5687 27.0007C49.7566 22.9335 52.065 19.7017 53.494 17.3053C54.923 14.909 56.385 12.0619 57.88 8.76419C59.397 5.46644 60.1554 3.15802 60.1554 1.83892C60.1554 1.22335 59.9576 0.915556 59.5619 0.915556C58.7924 0.915556 57.847 1.52014 56.7258 2.72931C55.6046 3.93849 54.4723 5.48843 53.3291 7.37913C51.3285 10.7208 49.6247 13.8427 48.2176 16.7447L40.5668 32.5079C40.6108 32.6838 40.6328 32.8597 40.6328 33.0356C40.6328 33.2115 40.5669 33.2994 40.4349 33.2994C40.369 33.2994 40.303 33.2334 40.2371 33.1015ZM39.3137 31.0569C38.6102 29.9577 37.5989 29.4081 36.2798 29.4081C34.9827 29.4081 33.6086 30.0236 32.1576 31.2548C30.7286 32.486 29.5744 33.959 28.695 35.6738C27.8156 37.3886 27.3759 38.9935 27.3759 40.4885C27.3759 41.9835 27.9915 42.7309 29.2226 42.7309C30.8715 42.7309 32.9601 41.6757 35.4883 39.5651C35.8621 38.224 37.1372 35.388 39.3137 31.0569ZM39.6435 30.3314L45.9092 17.734C47.8439 13.7768 49.141 11.2815 49.8005 10.2482C50.4821 9.21488 51.1746 8.18158 51.8781 7.14829C52.6036 6.09301 53.2742 5.2356 53.8897 4.57605C55.5826 2.79527 57.1435 1.48716 58.5725 0.651736C59.32 0.212037 59.9356 -0.0078125 60.4193 -0.0078125C61.2107 -0.0078125 61.6065 0.541811 61.6065 1.64106C61.6065 4.14735 60.9579 6.78554 59.6608 9.55564C58.3637 12.3038 56.6159 15.2498 54.4174 18.3936C52.9224 20.5701 50.2952 23.8898 46.5358 28.3528C42.7983 32.8157 39.9733 36.0036 38.0606 37.9162C37.6209 39.0375 37.401 40.0268 37.401 40.8842C37.401 42.2912 38.1815 42.9948 39.7424 42.9948C41.3033 42.9948 43.1941 42.1264 45.4145 40.3896C47.657 38.6308 49.2289 37.0588 50.1303 35.6738C50.2182 35.5419 50.3062 35.4759 50.3941 35.4759C50.4821 35.4759 50.526 35.5089 50.526 35.5748C50.526 35.6408 50.5041 35.7177 50.4601 35.8057C49.2729 37.3886 48.0857 38.6967 46.8985 39.73C45.7333 40.7633 44.3373 41.7526 42.7104 42.698C41.1055 43.6433 39.7314 44.116 38.5882 44.116C37.467 44.116 36.6205 43.8632 36.0489 43.3575C35.4993 42.8299 35.2245 42.1374 35.2245 41.2799C35.2245 40.8842 35.2685 40.5105 35.3564 40.1587C32.3884 42.621 29.7942 43.8522 27.5737 43.8522C25.727 43.8522 24.8036 42.7309 24.8036 40.4885C24.8036 38.8616 25.3752 37.1248 26.5185 35.278C27.6837 33.4093 29.1676 31.8374 30.9704 30.5623C32.7952 29.2652 34.499 28.6166 36.0819 28.6166C37.6648 28.6166 38.852 29.1882 39.6435 30.3314Z" fill="currentColor"/>
<path d="M67.8933 40.1587C68.8606 39.2793 69.6741 38.4659 70.3336 37.7184C70.9932 36.9709 71.4439 36.4103 71.6857 36.0365C71.9495 35.6628 72.1254 35.4759 72.2133 35.4759C72.3013 35.4759 72.3453 35.5089 72.3453 35.5748C72.3453 35.6408 72.3233 35.7177 72.2793 35.8057C70.9822 37.8943 69.0915 39.8729 66.6072 41.7416C64.1229 43.5884 61.7925 44.5117 59.616 44.5117C58.4727 44.5117 57.9011 44.0061 57.9011 42.9948C57.9011 42.3352 58.077 41.5438 58.4288 40.6204C57.0657 41.6317 55.6037 42.5111 54.0428 43.2586C52.5038 44.0061 51.1517 44.3798 49.9865 44.3798C49.4589 44.3798 48.9423 44.2149 48.4366 43.8852C47.931 43.5554 47.6781 42.9948 47.6781 42.2033C47.6781 41.3899 48.5575 39.4442 50.3163 36.3663C52.0751 33.2664 52.9545 31.4087 52.9545 30.7931C52.9545 30.1775 52.6138 29.8697 51.9322 29.8697C51.2727 29.8697 50.5142 30.1556 49.6568 30.7272C49.4589 30.8591 49.327 30.925 49.261 30.925C49.2171 30.925 49.1951 30.8811 49.1951 30.7931C49.1951 30.7052 49.261 30.6172 49.393 30.5293C50.8 29.562 52.0092 29.0783 53.0205 29.0783C54.4715 29.0783 55.197 29.7159 55.197 30.991C55.197 31.6505 54.3616 33.4643 52.6907 36.4323C51.0198 39.3782 50.1844 41.1151 50.1844 41.6427C50.1844 42.1703 50.3713 42.5441 50.745 42.7639C51.1188 42.9618 51.5255 43.0607 51.9652 43.0607C53.0864 43.0607 54.3396 42.621 55.7246 41.7416C57.1097 40.8402 58.1869 39.9828 58.9564 39.1694C59.4401 38.1141 60.2975 36.4872 61.5287 34.2887C62.7598 32.0682 63.5293 30.7711 63.8371 30.3974C64.6065 29.562 65.3101 29.1442 65.9476 29.1442C66.1235 29.1442 66.2114 29.2762 66.2114 29.54C66.2114 29.8038 65.6948 30.8481 64.6615 32.6728C63.6502 34.4756 62.518 36.1794 61.2648 37.7843C60.5173 39.4112 60.1436 40.7963 60.1436 41.9395C60.1436 42.2913 60.2425 42.5881 60.4404 42.8299C60.6383 43.0717 60.8911 43.1926 61.1989 43.1926C62.2981 43.1926 63.4413 42.9068 64.6285 42.3352C65.8377 41.7416 66.926 41.0161 67.8933 40.1587Z" fill="currentColor"/>
<path d="M74.9373 31.5516C73.8601 32.7608 72.9587 34.1788 72.2332 35.8057C71.5077 37.4106 71.1449 38.8066 71.1449 39.9938C71.1449 41.159 71.3978 42.0824 71.9034 42.7639C72.431 43.4455 73.3874 43.7862 74.7724 43.7862C76.1575 43.7862 77.7074 43.3245 79.4223 42.4012C81.1591 41.4778 82.742 40.3896 84.171 39.1364C85.622 37.8613 86.6883 36.7071 87.3698 35.6738C87.4578 35.5419 87.5457 35.4759 87.6336 35.4759C87.7216 35.4759 87.7655 35.5089 87.7655 35.5748C87.7655 35.6408 87.7436 35.7177 87.6996 35.8057C86.7542 37.0588 85.655 38.246 84.4019 39.3673C80.5325 42.8409 76.905 44.5777 73.5193 44.5777C72.1123 44.5777 70.9471 44.2699 70.0237 43.6543C69.1003 43.0387 68.6386 42.0714 68.6386 40.7523C68.6386 39.3892 69.0673 37.9162 69.9248 36.3333C70.7602 34.7724 71.7605 33.4313 72.9257 32.3101C74.1129 31.1669 75.3331 30.2325 76.5862 29.507C77.8613 28.7815 78.8506 28.4187 79.5542 28.4187C80.2797 28.4187 80.7963 28.5946 81.1041 28.9464C81.4119 29.2981 81.5658 29.7268 81.5658 30.2325C81.5658 30.7162 81.4998 31.0569 81.3679 31.2548C81.236 31.4307 80.9172 31.6505 80.4116 31.9144C79.9059 32.1782 79.5872 32.3101 79.4552 32.3101C79.3233 32.3101 79.2574 32.2881 79.2574 32.2441C79.2574 32.2002 79.2684 32.1562 79.2904 32.1122C79.3563 31.9363 79.3893 31.6505 79.3893 31.2548C79.3893 30.8591 79.2244 30.5073 78.8946 30.1995C78.5648 29.8917 78.2241 29.7378 77.8723 29.7378C76.9929 29.7378 76.0146 30.3424 74.9373 31.5516Z" fill="currentColor"/>
<path d="M96.1344 38.312C98.3768 36.0695 99.498 34.5745 99.498 33.827C99.498 33.6512 99.4101 33.5632 99.2342 33.5632C98.7945 33.5632 97.7612 35.1461 96.1344 38.312ZM95.4748 29.4081C94.0897 29.4081 92.6717 30.0236 91.2207 31.2548C89.7917 32.486 88.6375 33.959 87.7581 35.6738C86.8787 37.3886 86.439 38.9935 86.439 40.4885C86.439 41.9835 87.0546 42.7309 88.2857 42.7309C89.6488 42.7309 91.1657 42.1154 92.8366 40.8842C93.2983 39.2573 94.2436 37.4765 95.6727 35.5419C96.9918 33.6731 98.091 32.5739 98.9704 32.2441C98.2229 30.3534 97.0577 29.4081 95.4748 29.4081ZM95.3429 28.6166C97.4535 28.6166 98.8385 29.7818 99.498 32.1122C100.07 32.1122 100.355 32.354 100.355 32.8377C100.355 33.4313 100.257 33.926 100.059 34.3217C99.8608 34.6954 99.7069 34.9813 99.597 35.1791C99.509 35.355 99.3442 35.5858 99.1023 35.8716C98.8385 36.1574 98.6626 36.3553 98.5747 36.4652C97.6733 37.4765 96.728 38.4219 95.7386 39.3013C95.3869 40.4445 95.211 41.214 95.211 41.6097C95.211 42.5331 95.9475 42.9948 97.4205 42.9948C98.8935 42.9948 100.718 42.1154 102.895 40.3566C105.093 38.5978 106.643 37.0368 107.545 35.6738C107.632 35.5419 107.72 35.4759 107.808 35.4759C107.896 35.4759 107.94 35.5089 107.94 35.5748C107.94 35.6408 107.918 35.7177 107.874 35.8057C106.687 37.3886 105.5 38.6967 104.313 39.73C103.148 40.7633 101.708 41.7746 99.9927 42.7639C98.2999 43.7533 96.7499 44.2479 95.3429 44.2479C93.5841 44.2479 92.7047 43.5444 92.7047 42.1374C92.7047 42.0714 92.7157 41.9725 92.7377 41.8406C92.7597 41.7087 92.7707 41.6097 92.7707 41.5438C90.2864 43.0827 88.2418 43.8522 86.6368 43.8522C84.7901 43.8522 83.8667 42.7309 83.8667 40.4885C83.8667 38.8616 84.4384 37.1248 85.5816 35.278C86.7468 33.4093 88.2308 31.8374 90.0335 30.5623C91.8583 29.2652 93.6281 28.6166 95.3429 28.6166Z" fill="currentColor"/>
<path d="M106.038 30.925C105.994 30.925 105.972 30.8811 105.972 30.7931C105.972 30.7052 106.027 30.6172 106.137 30.5293C106.466 30.3094 106.796 30.0786 107.126 29.8368C107.478 29.5949 108.852 29.2762 111.248 28.8804L116.59 18.9872C116.854 18.4376 117.228 17.9429 117.712 17.5032C118.151 17.0415 118.591 16.8107 119.031 16.8107C119.053 16.8107 119.086 16.8107 119.13 16.8107C119.503 16.8107 119.69 16.8986 119.69 17.0745C119.69 17.2504 119.141 18.2727 118.041 20.1414C116.942 22.0101 115.425 24.8132 113.491 28.5507L119.69 27.5613C119.822 27.5613 119.888 27.5833 119.888 27.6273C119.888 27.7592 119.723 27.9241 119.394 28.1219C119.086 28.3198 118.844 28.4187 118.668 28.4187C118.492 28.4187 116.634 28.7045 113.095 29.2762L109.929 35.8716C108.742 38.5098 108.148 40.2247 108.148 41.0161C108.148 41.8076 108.379 42.4561 108.841 42.9618C109.302 43.4674 109.885 43.7203 110.589 43.7203C112.303 43.7203 113.71 43.4125 114.81 42.7969C115.931 42.1813 117.096 41.3349 118.305 40.2576C119.536 39.1804 120.526 38.224 121.273 37.3886C122.043 36.5312 122.493 36.0036 122.625 35.8057C122.779 35.5858 122.9 35.4759 122.988 35.4759C123.076 35.4759 123.12 35.5089 123.12 35.5748C123.12 35.6408 123.098 35.7177 123.054 35.8057C121.999 37.1907 120.899 38.4329 119.756 39.5321C118.613 40.6094 117.613 41.4668 116.755 42.1044C115.92 42.7419 114.865 43.2916 113.589 43.7533C112.336 44.2149 111.061 44.4458 109.764 44.4458C108.489 44.4458 107.478 44.16 106.73 43.5884C106.005 43.0168 105.642 42.1154 105.642 40.8842C105.642 39.6531 106.279 37.9162 107.555 35.6738L110.72 29.8038C107.95 30.3534 106.488 30.6832 106.334 30.7931C106.203 30.8811 106.104 30.925 106.038 30.925Z" fill="currentColor"/>
<path d="M121.602 30.7272C121.404 30.8591 121.272 30.925 121.206 30.925C121.162 30.925 121.14 30.8811 121.14 30.7931C121.14 30.7052 121.206 30.6172 121.338 30.5293C122.745 29.562 123.954 29.0783 124.965 29.0783C126.46 29.0783 127.208 29.7598 127.208 31.1229C127.208 31.6066 126.834 32.5079 126.087 33.827C125.339 35.1242 124.592 36.4872 123.844 37.9162C123.097 39.3453 122.723 40.4665 122.723 41.2799C122.723 42.4232 123.492 42.9948 125.031 42.9948C125.779 42.9948 126.757 42.643 127.966 41.9395C129.197 41.236 130.275 40.4995 131.198 39.73C132.121 38.9605 132.935 38.1911 133.638 37.4216C134.342 36.6521 134.771 36.1355 134.925 35.8716C135.1 35.6078 135.232 35.4759 135.32 35.4759C135.408 35.4759 135.452 35.5089 135.452 35.5748C135.452 35.6408 135.43 35.7177 135.386 35.8057C134.309 37.2567 133.122 38.5538 131.825 39.697C130.418 41.0381 128.879 42.1154 127.208 42.9288C125.537 43.7203 124.207 44.116 123.218 44.116C122.228 44.116 121.459 43.8962 120.909 43.4565C120.36 43.0168 120.085 42.3572 120.085 41.4778C120.085 40.5984 120.491 39.4112 121.305 37.9162C122.118 36.4213 122.932 35.0362 123.745 33.7611C124.559 32.464 124.965 31.6066 124.965 31.1888C124.965 30.7491 124.866 30.4084 124.669 30.1665C124.493 29.9247 124.262 29.8038 123.976 29.8038C123.317 29.8038 122.525 30.1116 121.602 30.7272ZM128.989 21.8892C128.989 21.4055 129.208 20.8999 129.648 20.3722C130.044 19.8446 130.44 19.5808 130.835 19.5808C131.231 19.5808 131.528 19.7017 131.726 19.9435C131.924 20.1634 132.023 20.4822 132.023 20.8999C132.023 21.3176 131.825 21.7903 131.429 22.3179C131.033 22.8236 130.572 23.0764 130.044 23.0764C129.34 23.0764 128.989 22.6807 128.989 21.8892Z" fill="currentColor"/>
<path d="M136.574 29.7378C135.805 29.7378 134.925 30.0676 133.936 30.7272C133.738 30.8591 133.606 30.925 133.54 30.925C133.496 30.925 133.474 30.8811 133.474 30.7931C133.474 30.7052 133.54 30.6172 133.672 30.5293C135.189 29.3861 136.574 28.8145 137.827 28.8145C138.377 28.8145 138.806 28.9684 139.113 29.2762C139.443 29.5839 139.608 29.9687 139.608 30.4304C139.608 30.892 139.168 31.9144 138.289 33.4973C141.829 30.4633 144.577 28.9464 146.533 28.9464C147.215 28.9464 147.699 29.1882 147.984 29.6719C148.292 30.1336 148.446 30.7272 148.446 31.4527C148.446 32.1562 147.699 33.882 146.204 36.6301C144.709 39.3782 143.961 41.148 143.961 41.9395C143.961 42.2913 144.06 42.5881 144.258 42.8299C144.456 43.0717 144.709 43.1926 145.016 43.1926C146.973 43.1926 149.369 41.9615 152.206 39.4992C152.953 38.8396 153.668 38.1361 154.349 37.3886C155.053 36.6411 155.481 36.1355 155.635 35.8716C155.811 35.6078 155.943 35.4759 156.031 35.4759C156.119 35.4759 156.163 35.5089 156.163 35.5748C156.163 35.6408 156.141 35.7177 156.097 35.8057C155.305 36.861 154.107 38.1801 152.502 39.763C150.919 41.3239 149.271 42.5111 147.556 43.3245C145.863 44.116 144.445 44.5117 143.302 44.5117C142.158 44.5117 141.587 44.0061 141.587 42.9948C141.587 42.0934 141.961 40.8952 142.708 39.4002C143.456 37.8833 144.203 36.4213 144.951 35.0142C145.698 33.6072 146.072 32.5519 146.072 31.8484C146.072 30.7491 145.654 30.1995 144.819 30.1995C144.049 30.1995 142.708 30.892 140.795 32.2771C138.905 33.6402 137.871 34.4866 137.695 34.8164L132.881 43.5884C132.771 43.7642 132.562 43.8742 132.254 43.9181C131.968 43.9841 131.661 44.072 131.331 44.182C131.023 44.3139 130.814 44.3798 130.704 44.3798C130.44 44.3798 130.309 44.2699 130.309 44.05C130.309 43.9621 130.946 42.8409 132.221 40.6863C135.651 34.7944 137.366 31.4307 137.366 30.5953C137.366 30.0236 137.102 29.7378 136.574 29.7378Z" fill="currentColor"/>
<path d="M168.164 33.2334C167.571 32.1782 166.834 31.2768 165.955 30.5293C165.075 29.7818 164.108 29.4081 163.053 29.4081C162.019 29.4081 160.854 29.9907 159.557 31.1559C158.282 32.2991 157.161 33.7831 156.193 35.6078C155.248 37.4326 154.775 39.1694 154.775 40.8183C154.775 41.3239 154.962 41.7746 155.336 42.1703C155.71 42.5441 156.161 42.7309 156.688 42.7309C159.063 42.7309 162.118 40.7963 165.856 36.9269C166.362 36.4213 167.131 35.1901 168.164 33.2334ZM144.981 74.1255C143.376 75.6205 141.551 76.8076 139.507 77.687C137.462 78.5664 135.484 79.0061 133.571 79.0061C131.658 79.0061 129.954 78.6544 128.459 77.9509C126.964 77.2693 125.7 76.2141 124.667 74.785C123.634 73.356 123.117 71.6961 123.117 69.8054C123.117 67.9147 123.502 66.09 124.271 64.3312C125.041 62.5944 126.085 61.0444 127.404 59.6814C128.701 58.3183 130.218 57.0322 131.955 55.823C133.67 54.6358 135.473 53.5805 137.363 52.6572C139.254 51.7558 141.167 50.9203 143.101 50.1509C146.003 49.0077 149.455 47.8315 153.456 46.6223C153.566 46.5343 153.764 46.4904 154.05 46.4904C154.358 46.4904 154.512 46.6003 154.512 46.8202C154.512 47.04 154.281 47.2269 153.819 47.3808C153.357 47.5567 152.368 47.8644 150.851 48.3041C149.356 48.7658 148.059 49.1725 146.96 49.5243C145.839 49.898 144.234 50.4807 142.145 51.2721C140.057 52.0636 138.364 52.8001 137.067 53.4816C135.769 54.1631 134.296 55.0535 132.648 56.1528C130.999 57.274 129.713 58.4062 128.789 59.5494C127.844 60.6927 127.041 62.0447 126.382 63.6057C125.7 65.1666 125.36 66.8045 125.36 68.5193C125.36 71.1135 126.305 73.301 128.196 75.0818C130.064 76.8626 132.263 77.753 134.791 77.753C137.319 77.753 139.936 76.5438 142.64 74.1255C145.344 71.7071 147.762 68.5853 149.895 64.7599C154.907 55.812 160.074 46.8861 165.394 37.9822C163.877 39.6091 162.151 40.9941 160.217 42.1374C158.282 43.2806 156.512 43.8522 154.907 43.8522C153.149 43.8522 152.269 42.709 152.269 40.4225C152.269 38.9056 152.83 37.2127 153.951 35.344C155.072 33.4753 156.49 31.8814 158.205 30.5623C159.92 29.2212 161.525 28.5507 163.02 28.5507C165.262 28.5507 167.043 30.0017 168.362 32.9037L168.56 32.5079C168.802 32.0682 169.11 31.8044 169.483 31.7165C169.659 31.6725 169.791 31.6176 169.879 31.5516C169.967 31.4856 170.055 31.4527 170.143 31.4527C170.187 31.4527 170.209 31.5186 170.209 31.6505C170.209 31.7824 170.165 31.8924 170.077 31.9803C169.989 32.0682 169.571 32.7498 168.824 34.0249C168.956 34.2887 169.022 34.4976 169.022 34.6515C169.022 34.8054 168.978 34.8823 168.89 34.8823L168.626 34.3547L152.401 64.4961C150.4 68.1675 147.927 71.3773 144.981 74.1255Z" fill="currentColor"/>
<path d="M208.858 35.6078L208.727 34.7504C208.727 34.6185 208.771 34.5525 208.858 34.5525L209.65 35.0802C209.694 35.1022 209.738 35.1461 209.782 35.2121C209.848 35.2561 209.892 35.289 209.914 35.311C209.958 35.333 210.002 35.366 210.046 35.41C210.068 35.41 210.09 35.4319 210.112 35.4759C210.156 35.5419 210.178 35.6518 210.178 35.8057C210.178 36.4652 209.881 37.2787 209.287 38.246C208.716 39.1914 207.913 40.1587 206.88 41.148C205.868 42.1154 204.516 42.9398 202.824 43.6213C201.131 44.3029 199.251 44.6436 197.184 44.6436C195.118 44.6436 193.139 43.9841 191.249 42.665C189.358 41.3459 188.412 39.6531 188.412 37.5865C188.412 36.0915 188.731 34.7064 189.369 33.4313C190.028 32.1562 190.842 31.1339 191.809 30.3644C192.776 29.573 193.832 28.8694 194.975 28.2539C196.118 27.6163 197.173 27.1436 198.141 26.8358C200.405 26.0883 201.537 25.6706 201.537 25.5827C201.537 25.4068 201.406 25.2309 201.142 25.055C199.823 24.1537 199.163 22.9225 199.163 21.3616C199.163 19.7787 200.042 18.2617 201.801 16.8107C203.582 15.3597 205.978 14.6342 208.99 14.6342C210.068 14.6342 211.211 14.7661 212.42 15.0299C214.794 15.5795 215.982 16.327 215.982 17.2724C215.982 17.5362 215.861 17.866 215.619 18.2617C215.377 18.6354 215.179 18.9872 215.025 19.317C214.871 19.6248 214.75 19.7787 214.662 19.7787C214.575 19.7787 214.487 19.6467 214.399 19.3829C214.135 18.4815 213.453 17.6021 212.354 16.7447C211.277 15.8653 209.969 15.4256 208.43 15.4256C206.913 15.4256 205.671 15.5795 204.703 15.8873C203.714 16.1511 202.999 16.5249 202.56 17.0085C201.79 17.844 201.406 18.6904 201.406 19.5478C201.406 20.3832 201.636 21.2407 202.098 22.1201C202.582 22.9994 203.186 23.648 203.912 24.0657C204.791 24.4834 205.231 24.7473 205.231 24.8572C205.231 25.2309 205.143 25.5277 204.967 25.7476C204.791 25.9674 204.417 26.1103 203.846 26.1763C201.911 26.3961 200.207 26.7919 198.734 27.3635C197.261 27.9351 196.085 28.5836 195.206 29.3091C194.348 30.0126 193.645 30.8261 193.095 31.7495C192.172 33.3104 191.71 35.1022 191.71 37.1248C191.71 38.224 191.941 39.1914 192.403 40.0268C192.864 40.8622 193.469 41.4998 194.216 41.9395C196.283 42.7529 197.822 43.1926 198.833 43.2586C201.889 43.2586 204.319 42.4781 206.121 40.9172C207.946 39.3563 208.858 37.5865 208.858 35.6078Z" fill="currentColor"/>
<path d="M217.762 29.7378C216.992 29.7378 216.113 30.0676 215.124 30.7272C214.926 30.8591 214.794 30.925 214.728 30.925C214.684 30.925 214.662 30.8811 214.662 30.7931C214.662 30.7052 214.728 30.6172 214.86 30.5293C216.377 29.3861 217.762 28.8145 219.015 28.8145C219.565 28.8145 219.993 28.9684 220.301 29.2762C220.631 29.5839 220.796 29.9687 220.796 30.4304C220.796 30.892 220.356 31.9144 219.477 33.4973C223.016 30.4633 225.764 28.9464 227.721 28.9464C228.403 28.9464 228.886 29.1882 229.172 29.6719C229.48 30.1336 229.634 30.7272 229.634 31.4527C229.634 32.1562 228.886 33.882 227.391 36.6301C225.896 39.3782 225.149 41.148 225.149 41.9395C225.149 42.2913 225.248 42.5881 225.446 42.8299C225.643 43.0717 225.896 43.1926 226.204 43.1926C228.161 43.1926 230.557 41.9615 233.393 39.4992C234.141 38.8396 234.855 38.1361 235.537 37.3886C236.24 36.6411 236.669 36.1355 236.823 35.8716C236.999 35.6078 237.131 35.4759 237.219 35.4759C237.306 35.4759 237.35 35.5089 237.35 35.5748C237.35 35.6408 237.328 35.7177 237.285 35.8057C236.493 36.861 235.295 38.1801 233.69 39.763C232.107 41.3239 230.458 42.5111 228.743 43.3245C227.051 44.116 225.632 44.5117 224.489 44.5117C223.346 44.5117 222.774 44.0061 222.774 42.9948C222.774 42.0934 223.148 40.8952 223.896 39.4002C224.643 37.8833 225.391 36.4213 226.138 35.0142C226.886 33.6072 227.259 32.5519 227.259 31.8484C227.259 30.7491 226.842 30.1995 226.006 30.1995C225.237 30.1995 223.896 30.892 221.983 32.2771C220.092 33.6402 219.059 34.4866 218.883 34.8164L214.068 43.5884C213.958 43.7642 213.75 43.8742 213.442 43.9181C213.156 43.9841 212.848 44.072 212.518 44.182C212.211 44.3139 212.002 44.3798 211.892 44.3798C211.628 44.3798 211.496 44.2699 211.496 44.05C211.496 43.9621 212.134 42.8409 213.409 40.6863C216.838 34.7944 218.553 31.4307 218.553 30.5953C218.553 30.0236 218.289 29.7378 217.762 29.7378Z" fill="currentColor"/>
<path d="M235.435 30.925C235.391 30.925 235.369 30.8811 235.369 30.7931C235.369 30.7052 235.424 30.6172 235.534 30.5293C235.864 30.3094 236.194 30.0786 236.524 29.8368C236.875 29.5949 238.25 29.2762 240.646 28.8804L245.988 18.9872C246.252 18.4376 246.626 17.9429 247.109 17.5032C247.549 17.0415 247.989 16.8107 248.429 16.8107C248.451 16.8107 248.484 16.8107 248.527 16.8107C248.901 16.8107 249.088 16.8986 249.088 17.0745C249.088 17.2504 248.538 18.2727 247.439 20.1414C246.34 22.0101 244.823 24.8132 242.888 28.5507L249.088 27.5613C249.22 27.5613 249.286 27.5833 249.286 27.6273C249.286 27.7592 249.121 27.9241 248.791 28.1219C248.484 28.3198 248.242 28.4187 248.066 28.4187C247.89 28.4187 246.032 28.7045 242.493 29.2762L239.327 35.8716C238.14 38.5098 237.546 40.2247 237.546 41.0161C237.546 41.8076 237.777 42.4561 238.239 42.9618C238.7 43.4674 239.283 43.7203 239.986 43.7203C241.701 43.7203 243.108 43.4125 244.207 42.7969C245.329 42.1813 246.494 41.3349 247.703 40.2576C248.934 39.1804 249.924 38.224 250.671 37.3886C251.44 36.5312 251.891 36.0036 252.023 35.8057C252.177 35.5858 252.298 35.4759 252.386 35.4759C252.474 35.4759 252.518 35.5089 252.518 35.5748C252.518 35.6408 252.496 35.7177 252.452 35.8057C251.397 37.1907 250.297 38.4329 249.154 39.5321C248.011 40.6094 247.011 41.4668 246.153 42.1044C245.318 42.7419 244.262 43.2916 242.987 43.7533C241.734 44.2149 240.459 44.4458 239.162 44.4458C237.887 44.4458 236.875 44.16 236.128 43.5884C235.402 43.0168 235.04 42.1154 235.04 40.8842C235.04 39.6531 235.677 37.9162 236.952 35.6738L240.118 29.8038C237.348 30.3534 235.886 30.6832 235.732 30.7931C235.6 30.8811 235.501 30.925 235.435 30.925Z" fill="currentColor"/>
<path d="M254.297 29.0783C254.935 29.0783 255.418 29.2542 255.748 29.6059C256.1 29.9577 256.276 30.3204 256.276 30.6942C256.276 31.0679 256.188 31.4747 256.012 31.9144C255.836 32.354 255.649 32.7608 255.451 33.1345C255.254 33.5083 255.034 33.904 254.792 34.3217C254.572 34.7174 254.451 34.9483 254.429 35.0142C255.748 33.4973 257.375 32.0463 259.31 30.6612C260.695 29.6939 262.498 28.7705 264.718 27.8911C264.982 27.8032 265.147 27.7592 265.213 27.7592C265.279 27.7592 265.312 27.7922 265.312 27.8581C265.312 27.9241 265.29 27.979 265.246 28.023C265.224 28.045 265.191 28.067 265.147 28.089C265.103 28.111 264.971 28.1769 264.751 28.2868C264.553 28.3968 264.103 28.7595 263.399 29.3751C262.695 29.9687 262.344 30.4963 262.344 30.958C262.344 31.4197 262.542 31.6505 262.937 31.6505C263.443 31.6505 264.212 31.2768 265.246 30.5293C265.444 30.3974 265.565 30.3314 265.608 30.3314C265.674 30.3314 265.707 30.3754 265.707 30.4633C265.707 30.5513 265.641 30.6392 265.51 30.7272C264.608 31.3867 263.894 31.8374 263.366 32.0792C262.86 32.3211 262.355 32.442 261.849 32.442C261.343 32.442 260.937 32.354 260.629 32.1782C260.321 32.0023 260.167 31.7495 260.167 31.4197C260.167 31.0679 260.299 30.7272 260.563 30.3974C259.552 30.969 258.364 31.9144 257.001 33.2334C255.638 34.5306 254.275 36.0915 252.912 37.9162C250.89 41.6537 249.746 43.6763 249.483 43.9841C249.219 44.2919 249.021 44.4458 248.889 44.4458C248.779 44.4458 248.691 44.4128 248.625 44.3468C248.559 44.3029 248.471 44.193 248.361 44.0171C248.273 43.8412 248.141 43.6323 247.966 43.3905C247.79 43.1267 247.702 42.9178 247.702 42.7639C247.702 42.588 247.856 42.2693 248.163 41.8076C248.471 41.3239 248.823 40.8622 249.219 40.4225C249.636 39.9608 249.988 39.5431 250.274 39.1694C252.077 35.7837 253.176 33.6841 253.572 32.8707C253.967 32.0353 254.165 31.4307 254.165 31.0569C254.165 30.6612 254.066 30.3644 253.869 30.1665C253.693 29.9687 253.385 29.8697 252.945 29.8697C252.505 29.8697 251.857 30.1556 250.999 30.7272C250.802 30.8591 250.67 30.925 250.604 30.925C250.56 30.925 250.538 30.8811 250.538 30.7931C250.538 30.7052 250.604 30.6172 250.736 30.5293C252.143 29.562 253.33 29.0783 254.297 29.0783Z" fill="currentColor"/>
<path d="M263.347 39.6311L262.028 40.6863C261.984 40.6863 261.962 40.6424 261.962 40.5544C261.962 40.4665 262.039 40.3456 262.193 40.1917C262.347 40.0378 262.776 39.697 263.479 39.1694C263.985 37.5865 264.743 36.0915 265.755 34.6845C266.766 33.2774 267.799 32.1452 268.854 31.2878C269.91 30.4084 270.91 29.7268 271.855 29.2432C272.801 28.7375 273.548 28.4847 274.098 28.4847C275.241 28.4847 275.813 28.9244 275.813 29.8038C275.813 30.1336 275.692 30.4743 275.45 30.8261C275.208 31.1559 274.757 31.5736 274.098 32.0792C273.46 32.5849 272.845 33.0466 272.251 33.4643C271.68 33.86 270.756 34.4866 269.481 35.344C268.228 36.2014 267.151 36.9489 266.249 37.5865C265.854 38.7077 265.656 39.752 265.656 40.7193C265.656 41.6647 265.909 42.3682 266.414 42.8299C266.942 43.2916 267.81 43.5224 269.019 43.5224C270.251 43.5224 271.658 43.0937 273.24 42.2363C274.845 41.3789 276.362 40.3346 277.791 39.1034C279.22 37.8503 280.276 36.7071 280.957 35.6738C281.045 35.5419 281.133 35.4759 281.221 35.4759C281.309 35.4759 281.353 35.5089 281.353 35.5748C281.353 35.6408 281.331 35.7177 281.287 35.8057C278.847 38.9715 275.901 41.4338 272.449 43.1926C270.778 43.9841 269.151 44.3798 267.568 44.3798C264.578 44.3798 263.083 43.3465 263.083 41.2799C263.083 40.9722 263.171 40.4225 263.347 39.6311ZM266.513 36.9929C269.107 35.1242 270.954 33.6841 272.053 32.6728C273.153 31.6395 273.702 30.8371 273.702 30.2655C273.702 29.6939 273.46 29.4081 272.977 29.4081C271.899 29.4081 270.745 30.1885 269.514 31.7495C268.283 33.2884 267.283 35.0362 266.513 36.9929Z" fill="currentColor"/>
<path d="M280.284 38.0482L277.844 42.599C279.581 42.2473 281.318 41.6097 283.054 40.6863C284.813 39.741 286.286 38.7297 287.473 37.6524C288.682 36.5532 289.661 35.4869 290.408 34.4536C291.178 33.4203 291.563 32.5959 291.563 31.9803C291.563 30.7052 291.079 30.0676 290.112 30.0676C289.298 30.0676 287.825 30.958 285.693 32.7388C283.56 34.4976 281.757 36.2674 280.284 38.0482ZM280.548 45.5011C279.185 45.5011 277.888 45.1933 276.657 44.5777C274.392 48.7328 271.776 53.8553 268.808 59.9452C265.84 66.035 263.224 71.0916 260.959 75.1148C260.608 75.7524 260.157 76.324 259.607 76.8296C259.058 77.3353 258.541 77.72 258.057 77.9838C257.552 78.2257 257.046 78.4345 256.54 78.6104C255.771 78.8742 255.232 79.0061 254.925 79.0061C254.595 79.0061 254.43 78.9402 254.43 78.8083C254.43 78.6983 254.485 78.6104 254.595 78.5444C254.683 78.4785 254.892 78.3576 255.221 78.1817C255.529 78.0058 255.892 77.753 256.31 77.4232C256.705 77.1154 257.255 76.4779 257.958 75.5105C258.64 74.5652 260.476 71.4873 263.466 66.2768C266.456 61.0884 270.567 53.6575 275.799 43.9841C275.667 43.8522 275.601 43.7533 275.601 43.6873C275.601 43.5994 275.7 43.4784 275.898 43.3245C276.096 43.1487 276.239 43.0607 276.327 43.0607C278.921 38.29 280.218 35.1461 280.218 33.6292C280.218 32.1122 279.998 31.2768 279.559 31.1229C279.383 31.0569 279.295 30.991 279.295 30.925C279.295 30.8371 279.317 30.7711 279.361 30.7272C279.427 30.6832 279.515 30.6282 279.625 30.5623C279.735 30.4963 279.845 30.4194 279.954 30.3314C280.064 30.2435 280.185 30.1446 280.317 30.0346C280.471 29.9027 280.57 29.8038 280.614 29.7378C280.724 29.6059 280.922 29.54 281.208 29.54C281.559 29.54 281.845 29.8697 282.065 30.5293C282.285 31.1669 282.395 31.8814 282.395 32.6728C282.395 33.4643 282.131 34.4206 281.603 35.5419C283.956 33.2115 286.066 31.4417 287.935 30.2325C289.804 29.0233 291.299 28.4187 292.42 28.4187C293.563 28.4187 294.135 29.1113 294.135 30.4963C294.135 31.8814 293.42 33.4203 291.991 35.1132C290.562 36.784 288.628 38.3779 286.187 39.8949C283.747 41.4119 281.23 42.5111 278.635 43.1926C279.867 43.8522 281.186 44.182 282.593 44.182C284 44.182 285.341 44.0391 286.616 43.7533C287.891 43.4674 289.056 43.0387 290.112 42.4671C292.728 41.0601 294.981 39.3343 296.872 37.2897C297.575 36.5202 297.993 36.0255 298.125 35.8057C298.279 35.5858 298.4 35.4759 298.488 35.4759C298.576 35.4759 298.62 35.5089 298.62 35.5748C298.62 35.6408 298.598 35.7177 298.554 35.8057C297.432 37.3227 296.245 38.6417 294.992 39.763C290.727 43.5884 285.912 45.5011 280.548 45.5011Z" fill="currentColor"/>
<path d="M300.414 29.0783C301.052 29.0783 301.535 29.2542 301.865 29.6059C302.217 29.9577 302.393 30.3204 302.393 30.6942C302.393 31.0679 302.305 31.4747 302.129 31.9144C301.953 32.354 301.766 32.7608 301.568 33.1345C301.37 33.5083 301.151 33.904 300.909 34.3217C300.689 34.7174 300.568 34.9483 300.546 35.0142C301.865 33.4973 303.492 32.0463 305.427 30.6612C306.812 29.6939 308.615 28.7705 310.835 27.8911C311.099 27.8032 311.264 27.7592 311.33 27.7592C311.396 27.7592 311.429 27.7922 311.429 27.8581C311.429 27.9241 311.407 27.979 311.363 28.023C311.341 28.045 311.308 28.067 311.264 28.089C311.22 28.111 311.088 28.1769 310.868 28.2868C310.67 28.3968 310.219 28.7595 309.516 29.3751C308.812 29.9687 308.461 30.4963 308.461 30.958C308.461 31.4197 308.658 31.6505 309.054 31.6505C309.56 31.6505 310.329 31.2768 311.363 30.5293C311.561 30.3974 311.681 30.3314 311.725 30.3314C311.791 30.3314 311.824 30.3754 311.824 30.4633C311.824 30.5513 311.758 30.6392 311.626 30.7272C310.725 31.3867 310.011 31.8374 309.483 32.0792C308.977 32.3211 308.472 32.442 307.966 32.442C307.46 32.442 307.054 32.354 306.746 32.1782C306.438 32.0023 306.284 31.7495 306.284 31.4197C306.284 31.0679 306.416 30.7272 306.68 30.3974C305.669 30.969 304.481 31.9144 303.118 33.2334C301.755 34.5306 300.392 36.0915 299.029 37.9162C297.006 41.6537 295.863 43.6763 295.599 43.9841C295.336 44.2919 295.138 44.4458 295.006 44.4458C294.896 44.4458 294.808 44.4128 294.742 44.3468C294.676 44.3029 294.588 44.193 294.478 44.0171C294.39 43.8412 294.258 43.6323 294.082 43.3905C293.907 43.1267 293.819 42.9178 293.819 42.7639C293.819 42.588 293.973 42.2693 294.28 41.8076C294.588 41.3239 294.94 40.8622 295.336 40.4225C295.753 39.9608 296.105 39.5431 296.391 39.1694C298.194 35.7837 299.293 33.6841 299.689 32.8707C300.084 32.0353 300.282 31.4307 300.282 31.0569C300.282 30.6612 300.183 30.3644 299.985 30.1665C299.81 29.9687 299.502 29.8697 299.062 29.8697C298.622 29.8697 297.974 30.1556 297.116 30.7272C296.918 30.8591 296.787 30.925 296.721 30.925C296.677 30.925 296.655 30.8811 296.655 30.7931C296.655 30.7052 296.721 30.6172 296.853 30.5293C298.26 29.562 299.447 29.0783 300.414 29.0783Z" fill="currentColor"/>
<path d="M309.464 39.6311L308.145 40.6863C308.101 40.6863 308.079 40.6424 308.079 40.5544C308.079 40.4665 308.156 40.3456 308.31 40.1917C308.464 40.0378 308.893 39.697 309.596 39.1694C310.102 37.5865 310.86 36.0915 311.871 34.6845C312.883 33.2774 313.916 32.1452 314.971 31.2878C316.027 30.4084 317.027 29.7268 317.972 29.2432C318.918 28.7375 319.665 28.4847 320.215 28.4847C321.358 28.4847 321.93 28.9244 321.93 29.8038C321.93 30.1336 321.809 30.4743 321.567 30.8261C321.325 31.1559 320.874 31.5736 320.215 32.0792C319.577 32.5849 318.962 33.0466 318.368 33.4643C317.796 33.86 316.873 34.4866 315.598 35.344C314.345 36.2014 313.268 36.9489 312.366 37.5865C311.97 38.7077 311.773 39.752 311.773 40.7193C311.773 41.6647 312.025 42.3682 312.531 42.8299C313.059 43.2916 313.927 43.5224 315.136 43.5224C316.367 43.5224 317.774 43.0937 319.357 42.2363C320.962 41.3789 322.479 40.3346 323.908 39.1034C325.337 37.8503 326.393 36.7071 327.074 35.6738C327.162 35.5419 327.25 35.4759 327.338 35.4759C327.426 35.4759 327.47 35.5089 327.47 35.5748C327.47 35.6408 327.448 35.7177 327.404 35.8057C324.964 38.9715 322.018 41.4338 318.566 43.1926C316.895 43.9841 315.268 44.3798 313.685 44.3798C310.695 44.3798 309.2 43.3465 309.2 41.2799C309.2 40.9722 309.288 40.4225 309.464 39.6311ZM312.63 36.9929C315.224 35.1242 317.071 33.6841 318.17 32.6728C319.269 31.6395 319.819 30.8371 319.819 30.2655C319.819 29.6939 319.577 29.4081 319.094 29.4081C318.016 29.4081 316.862 30.1885 315.631 31.7495C314.4 33.2884 313.399 35.0362 312.63 36.9929Z" fill="currentColor"/>
<path d="M328.578 29.7378C327.808 29.7378 326.929 30.0676 325.939 30.7272C325.742 30.8591 325.61 30.925 325.544 30.925C325.5 30.925 325.478 30.8811 325.478 30.7931C325.478 30.7052 325.544 30.6172 325.676 30.5293C327.193 29.3861 328.578 28.8145 329.831 28.8145C330.38 28.8145 330.809 28.9684 331.117 29.2762C331.447 29.5839 331.612 29.9687 331.612 30.4304C331.612 30.892 331.172 31.9144 330.292 33.4973C333.832 30.4633 336.58 28.9464 338.537 28.9464C339.218 28.9464 339.702 29.1882 339.988 29.6719C340.296 30.1336 340.45 30.7272 340.45 31.4527C340.45 32.1562 339.702 33.882 338.207 36.6301C336.712 39.3782 335.965 41.148 335.965 41.9395C335.965 42.2913 336.064 42.5881 336.261 42.8299C336.459 43.0717 336.712 43.1926 337.02 43.1926C338.977 43.1926 341.373 41.9615 344.209 39.4992C344.956 38.8396 345.671 38.1361 346.352 37.3886C347.056 36.6411 347.485 36.1355 347.639 35.8716C347.814 35.6078 347.946 35.4759 348.034 35.4759C348.122 35.4759 348.166 35.5089 348.166 35.5748C348.166 35.6408 348.144 35.7177 348.1 35.8057C347.309 36.861 346.111 38.1801 344.506 39.763C342.923 41.3239 341.274 42.5111 339.559 43.3245C337.866 44.116 336.448 44.5117 335.305 44.5117C334.162 44.5117 333.59 44.0061 333.59 42.9948C333.59 42.0934 333.964 40.8952 334.711 39.4002C335.459 37.8833 336.206 36.4213 336.954 35.0142C337.701 33.6072 338.075 32.5519 338.075 31.8484C338.075 30.7491 337.657 30.1995 336.822 30.1995C336.053 30.1995 334.711 30.892 332.799 32.2771C330.908 33.6402 329.875 34.4866 329.699 34.8164L324.884 43.5884C324.774 43.7642 324.565 43.8742 324.258 43.9181C323.972 43.9841 323.664 44.072 323.334 44.182C323.026 44.3139 322.818 44.3798 322.708 44.3798C322.444 44.3798 322.312 44.2699 322.312 44.05C322.312 43.9621 322.949 42.8409 324.225 40.6863C327.654 34.7944 329.369 31.4307 329.369 30.5953C329.369 30.0236 329.105 29.7378 328.578 29.7378Z" fill="currentColor"/>
<path d="M344.47 39.6311L343.151 40.6863C343.107 40.6863 343.085 40.6424 343.085 40.5544C343.085 40.4665 343.162 40.3456 343.316 40.1917C343.47 40.0378 343.899 39.697 344.602 39.1694C345.108 37.5865 345.866 36.0915 346.878 34.6845C347.889 33.2774 348.922 32.1452 349.978 31.2878C351.033 30.4084 352.033 29.7268 352.979 29.2432C353.924 28.7375 354.671 28.4847 355.221 28.4847C356.364 28.4847 356.936 28.9244 356.936 29.8038C356.936 30.1336 356.815 30.4743 356.573 30.8261C356.331 31.1559 355.881 31.5736 355.221 32.0792C354.584 32.5849 353.968 33.0466 353.374 33.4643C352.803 33.86 351.879 34.4866 350.604 35.344C349.351 36.2014 348.274 36.9489 347.372 37.5865C346.977 38.7077 346.779 39.752 346.779 40.7193C346.779 41.6647 347.032 42.3682 347.537 42.8299C348.065 43.2916 348.933 43.5224 350.143 43.5224C351.374 43.5224 352.781 43.0937 354.364 42.2363C355.969 41.3789 357.486 40.3346 358.915 39.1034C360.344 37.8503 361.399 36.7071 362.08 35.6738C362.168 35.5419 362.256 35.4759 362.344 35.4759C362.432 35.4759 362.476 35.5089 362.476 35.5748C362.476 35.6408 362.454 35.7177 362.41 35.8057C359.97 38.9715 357.024 41.4338 353.572 43.1926C351.901 43.9841 350.274 44.3798 348.692 44.3798C345.702 44.3798 344.207 43.3465 344.207 41.2799C344.207 40.9722 344.295 40.4225 344.47 39.6311ZM347.636 36.9929C350.231 35.1242 352.077 33.6841 353.176 32.6728C354.276 31.6395 354.825 30.8371 354.825 30.2655C354.825 29.6939 354.584 29.4081 354.1 29.4081C353.023 29.4081 351.868 30.1885 350.637 31.7495C349.406 33.2884 348.406 35.0362 347.636 36.9929Z" fill="currentColor"/>
<path d="M379.182 40.1587C380.15 39.2793 380.963 38.4659 381.623 37.7184C382.282 36.9709 382.733 36.4103 382.975 36.0365C383.239 35.6628 383.414 35.4759 383.502 35.4759C383.59 35.4759 383.634 35.5089 383.634 35.5748C383.634 35.6408 383.612 35.7177 383.568 35.8057C382.271 37.8943 380.38 39.8729 377.896 41.7416C375.412 43.5884 373.081 44.5117 370.905 44.5117C369.762 44.5117 369.19 44.0061 369.19 42.9948C369.19 42.3352 369.366 41.5438 369.718 40.6204C368.355 41.6317 366.893 42.5111 365.332 43.2586C363.793 44.0061 362.441 44.3798 361.276 44.3798C360.748 44.3798 360.231 44.2149 359.726 43.8852C359.22 43.5554 358.967 42.9948 358.967 42.2033C358.967 41.3899 359.847 39.4442 361.605 36.3663C363.364 33.2664 364.244 31.4087 364.244 30.7931C364.244 30.1775 363.903 29.8697 363.221 29.8697C362.562 29.8697 361.803 30.1556 360.946 30.7272C360.748 30.8591 360.616 30.925 360.55 30.925C360.506 30.925 360.484 30.8811 360.484 30.7931C360.484 30.7052 360.55 30.6172 360.682 30.5293C362.089 29.562 363.298 29.0783 364.309 29.0783C365.76 29.0783 366.486 29.7159 366.486 30.991C366.486 31.6505 365.651 33.4643 363.98 36.4323C362.309 39.3782 361.473 41.1151 361.473 41.6427C361.473 42.1703 361.66 42.5441 362.034 42.7639C362.408 42.9618 362.815 43.0607 363.254 43.0607C364.375 43.0607 365.629 42.621 367.014 41.7416C368.399 40.8402 369.476 39.9828 370.245 39.1694C370.729 38.1141 371.586 36.4872 372.818 34.2887C374.049 32.0682 374.818 30.7711 375.126 30.3974C375.896 29.562 376.599 29.1442 377.237 29.1442C377.413 29.1442 377.5 29.2762 377.5 29.54C377.5 29.8038 376.984 30.8481 375.951 32.6728C374.939 34.4756 373.807 36.1794 372.554 37.7843C371.806 39.4112 371.433 40.7963 371.433 41.9395C371.433 42.2913 371.532 42.5881 371.729 42.8299C371.927 43.0717 372.18 43.1926 372.488 43.1926C373.587 43.1926 374.73 42.9068 375.918 42.3352C377.127 41.7416 378.215 41.0161 379.182 40.1587Z" fill="currentColor"/>
<path d="M385.402 29.0783C386.039 29.0783 386.523 29.2542 386.853 29.6059C387.205 29.9577 387.381 30.3204 387.381 30.6942C387.381 31.0679 387.293 31.4747 387.117 31.9144C386.941 32.354 386.754 32.7608 386.556 33.1345C386.358 33.5083 386.138 33.904 385.897 34.3217C385.677 34.7174 385.556 34.9483 385.534 35.0142C386.853 33.4973 388.48 32.0463 390.414 30.6612C391.799 29.6939 393.602 28.7705 395.823 27.8911C396.087 27.8032 396.251 27.7592 396.317 27.7592C396.383 27.7592 396.416 27.7922 396.416 27.8581C396.416 27.9241 396.394 27.979 396.35 28.023C396.328 28.045 396.295 28.067 396.251 28.089C396.207 28.111 396.076 28.1769 395.856 28.2868C395.658 28.3968 395.207 28.7595 394.504 29.3751C393.8 29.9687 393.448 30.4963 393.448 30.958C393.448 31.4197 393.646 31.6505 394.042 31.6505C394.548 31.6505 395.317 31.2768 396.35 30.5293C396.548 30.3974 396.669 30.3314 396.713 30.3314C396.779 30.3314 396.812 30.3754 396.812 30.4633C396.812 30.5513 396.746 30.6392 396.614 30.7272C395.713 31.3867 394.998 31.8374 394.471 32.0792C393.965 32.3211 393.459 32.442 392.954 32.442C392.448 32.442 392.041 32.354 391.734 32.1782C391.426 32.0023 391.272 31.7495 391.272 31.4197C391.272 31.0679 391.404 30.7272 391.668 30.3974C390.656 30.969 389.469 31.9144 388.106 33.2334C386.743 34.5306 385.38 36.0915 384.017 37.9162C381.994 41.6537 380.851 43.6763 380.587 43.9841C380.323 44.2919 380.125 44.4458 379.994 44.4458C379.884 44.4458 379.796 44.4128 379.73 44.3468C379.664 44.3029 379.576 44.193 379.466 44.0171C379.378 43.8412 379.246 43.6323 379.07 43.3905C378.894 43.1267 378.806 42.9178 378.806 42.7639C378.806 42.588 378.96 42.2693 379.268 41.8076C379.576 41.3239 379.928 40.8622 380.323 40.4225C380.741 39.9608 381.093 39.5431 381.379 39.1694C383.181 35.7837 384.281 33.6841 384.676 32.8707C385.072 32.0353 385.27 31.4307 385.27 31.0569C385.27 30.6612 385.171 30.3644 384.973 30.1665C384.797 29.9687 384.49 29.8697 384.05 29.8697C383.61 29.8697 382.962 30.1556 382.104 30.7272C381.906 30.8591 381.774 30.925 381.708 30.925C381.664 30.925 381.642 30.8811 381.642 30.7931C381.642 30.7052 381.708 30.6172 381.84 30.5293C383.247 29.562 384.435 29.0783 385.402 29.0783Z" fill="currentColor"/>
<path d="M394.914 40.2247L394.848 41.0821C394.848 41.9395 395.078 42.687 395.54 43.3245C396.024 43.9401 396.771 44.2479 397.783 44.2479C398.816 44.2479 400.091 43.6543 401.608 42.4671C403.147 41.258 404.477 39.741 405.598 37.9162C406.741 36.0695 407.313 34.3547 407.313 32.7718C407.313 30.7052 406.741 29.6719 405.598 29.6719C404.939 29.6719 404.191 29.9357 403.356 30.4633C402.52 30.991 401.729 31.6505 400.981 32.442C399.662 33.8051 398.695 34.9263 398.079 35.8057C397.991 35.9376 397.904 36.0036 397.816 36.0036C397.728 36.0036 397.684 35.9706 397.684 35.9046C397.684 35.8387 397.706 35.7617 397.75 35.6738C401.047 31.1009 403.949 28.8145 406.456 28.8145C407.467 28.8145 408.28 29.2102 408.896 30.0017C409.512 30.7931 409.819 31.7714 409.819 32.9366C409.819 34.1019 409.391 35.41 408.533 36.861C407.676 38.312 406.621 39.6091 405.367 40.7523C404.114 41.8955 402.74 42.8519 401.245 43.6213C399.772 44.3908 398.519 44.7756 397.486 44.7756C396.474 44.7756 395.441 44.5997 394.386 44.2479C393.353 43.8962 392.825 43.4345 392.803 42.8629C392.803 42.5771 393.089 42.0494 393.66 41.2799C394.254 40.4885 394.65 40.0928 394.848 40.0928C394.892 40.0928 394.914 40.1367 394.914 40.2247Z" fill="currentColor"/>
</svg>
